<?xml version="1.0" encoding="UTF-8" standalone="no"?>
<svg
   xmlns:svg="http://www.w3.org/2000/svg"
   xmlns="http://www.w3.org/2000/svg"
   height="24"
   viewBox="0 0 24 24"
   width="24"
   version="1.1"
   id="svg2016">
  <path
     d="M0 0h24v24H0z"
     fill="none"
     id="path2012" />
  <path
     style="stroke-width:0.77656311"
     d="M 11.611328 3.28125 L 6.125 15.298828 L 9.609375 18.46875 L 9.609375 18.929688 L 9.0371094 18.929688 C 8.885775 18.929688 8.7636719 19.051791 8.7636719 19.203125 L 8.7636719 20.300781 C 8.7636719 20.452116 8.885775 20.574219 9.0371094 20.574219 L 9.609375 20.574219 L 9.609375 21.929688 L 14.390625 21.929688 L 14.390625 20.574219 L 14.804688 20.574219 C 14.956022 20.574219 15.076172 20.452116 15.076172 20.300781 L 15.076172 19.203125 C 15.076172 19.051791 14.956022 18.929688 14.804688 18.929688 L 14.390625 18.929688 L 14.390625 18.382812 L 17.875 15.298828 L 12.388672 3.28125 L 12.388672 10.740234 A 0.85441744 0.85441744 0 0 1 12.460938 10.78125 A 0.85441744 0.85441744 0 0 1 12.529297 10.830078 A 0.85441744 0.85441744 0 0 1 12.59375 10.886719 A 0.85441744 0.85441744 0 0 1 12.652344 10.949219 A 0.85441744 0.85441744 0 0 1 12.703125 11.017578 A 0.85441744 0.85441744 0 0 1 12.748047 11.089844 A 0.85441744 0.85441744 0 0 1 12.785156 11.167969 A 0.85441744 0.85441744 0 0 1 12.814453 11.248047 A 0.85441744 0.85441744 0 0 1 12.835938 11.330078 A 0.85441744 0.85441744 0 0 1 12.849609 11.414062 A 0.85441744 0.85441744 0 0 1 12.853516 11.5 A 0.85441744 0.85441744 0 0 1 12.851562 11.558594 A 0.85441744 0.85441744 0 0 1 12.841797 11.642578 A 0.85441744 0.85441744 0 0 1 12.822266 11.726562 A 0.85441744 0.85441744 0 0 1 12.794922 11.808594 A 0.85441744 0.85441744 0 0 1 12.761719 11.886719 A 0.85441744 0.85441744 0 0 1 12.71875 11.960938 A 0.85441744 0.85441744 0 0 1 12.669922 12.029297 A 0.85441744 0.85441744 0 0 1 12.613281 12.09375 A 0.85441744 0.85441744 0 0 1 12.550781 12.152344 A 0.85441744 0.85441744 0 0 1 12.482422 12.203125 A 0.85441744 0.85441744 0 0 1 12.410156 12.248047 A 0.85441744 0.85441744 0 0 1 12.332031 12.285156 A 0.85441744 0.85441744 0 0 1 12.251953 12.314453 A 0.85441744 0.85441744 0 0 1 12.169922 12.335938 A 0.85441744 0.85441744 0 0 1 12.085938 12.349609 A 0.85441744 0.85441744 0 0 1 12 12.353516 A 0.85441744 0.85441744 0 0 1 11.941406 12.351562 A 0.85441744 0.85441744 0 0 1 11.857422 12.341797 A 0.85441744 0.85441744 0 0 1 11.773438 12.322266 A 0.85441744 0.85441744 0 0 1 11.691406 12.294922 A 0.85441744 0.85441744 0 0 1 11.613281 12.261719 A 0.85441744 0.85441744 0 0 1 11.539062 12.21875 A 0.85441744 0.85441744 0 0 1 11.470703 12.169922 A 0.85441744 0.85441744 0 0 1 11.40625 12.113281 A 0.85441744 0.85441744 0 0 1 11.347656 12.050781 A 0.85441744 0.85441744 0 0 1 11.296875 11.982422 A 0.85441744 0.85441744 0 0 1 11.251953 11.910156 A 0.85441744 0.85441744 0 0 1 11.214844 11.832031 A 0.85441744 0.85441744 0 0 1 11.185547 11.751953 A 0.85441744 0.85441744 0 0 1 11.164062 11.669922 A 0.85441744 0.85441744 0 0 1 11.150391 11.585938 A 0.85441744 0.85441744 0 0 1 11.146484 11.5 A 0.85441744 0.85441744 0 0 1 11.150391 11.417969 A 0.85441744 0.85441744 0 0 1 11.162109 11.333984 A 0.85441744 0.85441744 0 0 1 11.183594 11.25 A 0.85441744 0.85441744 0 0 1 11.212891 11.169922 A 0.85441744 0.85441744 0 0 1 11.25 11.09375 A 0.85441744 0.85441744 0 0 1 11.294922 11.019531 A 0.85441744 0.85441744 0 0 1 11.345703 10.951172 A 0.85441744 0.85441744 0 0 1 11.404297 10.888672 A 0.85441744 0.85441744 0 0 1 11.46875 10.832031 A 0.85441744 0.85441744 0 0 1 11.537109 10.783203 A 0.85441744 0.85441744 0 0 1 11.611328 10.740234 L 11.611328 3.28125 z "
     id="path2657" />
</svg>
