<svg xmlns="http://www.w3.org/2000/svg" viewBox="0 0 24 24" width="18px" height="18px">
   <path
      d="m 1.8158026,9.403491 c -1.43462342,0.835139 -1.91854492,2.667355 -1.08340667,4.101979 0.83513837,1.434622 2.66735547,1.918544 4.10197867,1.083406 0.6827425,-0.397444 1.139629,-1.021992 1.354766,-1.72578 l 11.7497814,0.0019 c 0.06283,0.207948 0.15028,0.414426 0.261661,0.605758 0.815102,1.400206 2.616616,1.876019 4.016821,1.060915 1.400204,-0.815102 1.876017,-2.616614 1.060914,-4.01682 C 22.463215,9.114644 20.661703,8.638833 19.261498,9.453934 18.600532,9.838703 18.159311,10.442813 17.94502,11.11483 L 6.1914389,11.13827 C 6.1189386,10.914237 6.0385241,10.694314 5.9177812,10.486897 5.7970384,10.279482 5.6455049,10.100959 5.4865814,9.927341 4.6667778,9.113383 3.9854782,9.077585 3.9854782,9.077585 3.2672458,8.917141 2.498545,9.006046 1.8158026,9.403491 Z" />
</svg>