<svg
   xmlns:svg="http://www.w3.org/2000/svg"
   xmlns="http://www.w3.org/2000/svg"
   version="1.1"
   width="24"
   viewBox="0 0 24 24"
   height="24">
  <path
     id="path2"
     d="m 12.143818,5.6044996 v 3 l 4,-4 -4,-4.00000001 V 3.6044996 c -4.4199996,0 -7.9999996,3.58 -7.9999996,8.0000004 0,1.57 0.46,3.03 1.24,4.26 l 1.46,-1.46 c -0.45,-0.83 -0.7,-1.79 -0.7,-2.8 0,-3.3100004 2.69,-6.0000004 5.9999996,-6.0000004 z" />
  <path
     id="path4"
     fill="none"
     d="M 0.14381832,-0.39550041 H 24.143818 V 23.6045 H 0.14381832 Z" />
  <path
     style="stroke-width:1"
     id="path867"
     d="m 16.054811,18.297779 c -10.6073283,-12.462186 -5.303664,-6.231093 0,0 z M 11.392263,4.0349498 11.780692,5.3957666 C 10.833385,5.4383106 9.881616,5.6917578 9.0088527,6.2000715 6.1486097,7.8659379 5.1779527,11.544256 6.8438184,14.4045 L 9.4361831,12.894651 7.9928259,18.364269 2.5232089,16.920912 5.115575,15.411065 C 2.8910647,11.591646 5.0981237,7.2810843 8.9175422,5.0565753 10.274213,4.266421 9.9368328,3.9799715 11.392263,4.0349498 Z"
     />
</svg>
