<svg xmlns="http://www.w3.org/2000/svg" viewBox="0 0 24 24" width="18px" height="18px">
   <rect width="12.966066" height="1.4202501" x="5.5169668" y="11.289875" id="rect2" />
   <path
      d="m 18.628836,0.0492315 c 0,5.3311194 -2.909353,9.652846 -6.498224,9.652846 -3.5888695,0 -6.4982245,-4.3217266 -6.4982245,-9.652846"
      style="stroke-opacity:1;fill:none;stroke-width:1.33333333;" />
   <ellipse cx="12" cy="12" rx="2.9956844" ry="2.9298446" id="ellipse6" />
   <path
      d="m 20.525279,9.0467775 c -0.08656,0 -0.168234,0.01845 -0.252604,0.02604 -0.07673,0.0066 -0.153005,0.0082 -0.229166,0.02083 -0.09212,0.01585 -0.179448,0.04327 -0.26823,0.06771 -0.101954,0.027 -0.202878,0.05288 -0.302083,0.09115 -0.02874,0.01143 -0.05505,0.02675 -0.08333,0.03906 -0.296786,0.12537 -0.582086,0.289085 -0.833333,0.51823 -0.612063,0.5582175 -0.926953,1.3192375 -0.945313,2.0885415 -6.85e-4,0.02371 -0.0078,0.04659 -0.0078,0.07031 0,0.08137 0.01688,0.157275 0.02344,0.236979 0.0068,0.08458 0.01185,0.168711 0.02604,0.252604 0.01785,0.104405 0.04687,0.204345 0.07552,0.304688 0.02447,0.08679 0.04804,0.173078 0.08073,0.257812 0.03471,0.08922 0.0768,0.173068 0.119792,0.257813 0.04295,0.08526 0.08611,0.168322 0.138021,0.25 0.05287,0.08293 0.111154,0.160001 0.171875,0.236979 0.044,0.05595 0.07889,0.115858 0.127604,0.169271 0.01695,0.01859 0.03737,0.03146 0.05469,0.04948 0.06275,0.0654 0.131984,0.122925 0.20052,0.182292 0.06918,0.05941 0.137637,0.120234 0.210938,0.171875 0.08728,0.06246 0.181994,0.113944 0.276042,0.166665 0.0602,0.03289 0.117712,0.07062 0.179687,0.09896 0.124396,0.05865 0.254823,0.102395 0.388021,0.143229 0.03141,0.0093 0.06209,0.02035 0.09375,0.02865 0.142097,0.03832 0.287779,0.06426 0.4375,0.08073 0.01656,0.0019 0.03289,0.0062 0.04948,0.0078 l 0.01302,-0.0026 c 0.08535,0.0075 0.167938,0.02604 0.255208,0.02604 0.512691,0 0.987017,-0.144538 1.40625,-0.377604 l 0.02604,-0.0052 c 0.01936,-0.01072 0.03547,-0.02789 0.05469,-0.03906 0.125465,-0.07502 0.241766,-0.16022 0.354167,-0.252604 0.04002,-0.03224 0.08701,-0.05389 0.125,-0.08854 0.01853,-0.0169 0.03149,-0.03742 0.04948,-0.05469 0.065,-0.06236 0.120646,-0.132436 0.179687,-0.20052 0.06904,-0.07972 0.14148,-0.156938 0.200521,-0.242188 0.04861,-0.06996 0.08514,-0.147148 0.127604,-0.221354 0.04827,-0.08491 0.10149,-0.166701 0.140625,-0.255208 0.04135,-0.09275 0.06991,-0.191542 0.101563,-0.289063 0.02703,-0.08413 0.05887,-0.166703 0.07813,-0.252604 0.02144,-0.09489 0.02714,-0.193558 0.03906,-0.291667 0.01104,-0.09139 0.02621,-0.181455 0.02865,-0.273437 6.76e-4,-0.02578 0.0078,-0.04958 0.0078,-0.07552 0,-0.07034 -0.01592,-0.136614 -0.02083,-0.205729 -0.0071,-0.102287 -0.01343,-0.203379 -0.03125,-0.304688 -0.01587,-0.0894 -0.04127,-0.174003 -0.0651,-0.260416 -0.02586,-0.09481 -0.05031,-0.188855 -0.08594,-0.28125 -0.03546,-0.09121 -0.08089,-0.1765 -0.125,-0.263021 -0.04216,-0.08336 -0.08207,-0.167467 -0.132813,-0.247396 -0.05298,-0.08315 -0.113606,-0.159808 -0.174479,-0.236979 -0.044,-0.05595 -0.07889,-0.115859 -0.127604,-0.1692715 -0.01695,-0.01858 -0.03737,-0.03144 -0.05469,-0.04948 -0.0696,-0.07255 -0.147263,-0.135436 -0.223957,-0.200524 -0.06905,-0.05847 -0.135218,-0.120793 -0.208333,-0.171875 -0.07439,-0.05218 -0.155145,-0.09282 -0.234375,-0.138021 -0.08789,-0.04979 -0.173909,-0.103205 -0.265625,-0.143229 -0.07511,-0.03302 -0.156132,-0.05402 -0.234375,-0.08073 -0.09864,-0.03336 -0.195712,-0.07116 -0.296875,-0.09375 -0.09408,-0.02117 -0.191823,-0.02725 -0.289062,-0.03906 -0.09053,-0.01093 -0.179726,-0.02615 -0.270834,-0.02865 -0.02666,-7.22e-4 -0.0513,-0.0078 -0.07813,-0.0078 z m 0,1.9401055 c 0.55,0 1,0.45 1,1 0,0.1375 -0.02995,0.26849 -0.08073,0.388021 -0.0017,0.004 -0.006,0.0064 -0.0078,0.01042 -0.05375,0.112387 -0.126629,0.218525 -0.223958,0.307291 -0.406373,0.370623 -1.040836,0.341269 -1.411458,-0.0651 -0.185312,-0.203186 -0.272198,-0.462695 -0.260417,-0.71875 3.9e-5,-8.45e-4 -4.1e-5,-0.0018 0,-0.0026 0.0056,-0.116413 0.0378,-0.229871 0.08333,-0.338542 0.04977,-0.105735 0.113545,-0.20469 0.195313,-0.286458 0.18125,-0.18125 0.430729,-0.294271 0.705729,-0.294271 z" />
   <path
      d="m 3.477307,9.1120845 c -0.086564,0 -0.1682343,0.01845 -0.2526041,0.02604 -0.076728,0.0066 -0.153005,0.0082 -0.2291667,0.02083 -0.092123,0.01585 -0.1794477,0.04327 -0.2682292,0.06771 -0.1019547,0.027 -0.2028783,0.05288 -0.3020833,0.09115 -0.028744,0.01143 -0.055045,0.02675 -0.083333,0.03906 -0.2967859,0.12537 -0.5820863,0.289085 -0.8333332,0.518229 -0.61206234,0.5582175 -0.92695267,1.3192375 -0.94531267,2.0885415 -6.851e-4,0.02371 -0.00781,0.04659 -0.00781,0.07031 0,0.08137 0.016876,0.157275 0.023438,0.236979 0.00684,0.08458 0.011849,0.168711 0.026042,0.252604 0.017845,0.104405 0.046867,0.204345 0.075521,0.304688 0.02447,0.08679 0.048036,0.173078 0.080729,0.257812 0.03471,0.08922 0.076802,0.173068 0.11979163,0.257813 0.042946,0.08526 0.086112,0.168322 0.13802094,0.25 0.052866,0.08293 0.1111546,0.160001 0.171875,0.236979 0.044002,0.05595 0.07889,0.115857 0.1276041,0.169271 0.016956,0.01859 0.03737,0.03146 0.054688,0.04948 0.062747,0.0654 0.1319845,0.122926 0.2005208,0.182293 0.069178,0.05941 0.1376371,0.120232 0.2109375,0.171875 0.087281,0.06246 0.181994,0.113944 0.2760417,0.166665 0.060204,0.03289 0.117712,0.07062 0.1796875,0.09896 0.124396,0.05865 0.2548229,0.102394 0.3880208,0.143229 0.031415,0.0093 0.062092,0.02035 0.093749,0.02865 0.1420973,0.03832 0.2877789,0.06426 0.4374999,0.08073 0.016564,0.0019 0.032893,0.0062 0.049479,0.0078 l 0.013027,-0.0026 c 0.085347,0.0075 0.1679383,0.02604 0.2552084,0.02604 0.5126907,0 0.9870167,-0.144538 1.4062501,-0.377604 l 0.026043,-0.0052 c 0.019365,-0.01072 0.035465,-0.02789 0.054687,-0.03906 0.1254654,-0.07502 0.241766,-0.16022 0.3541667,-0.252604 0.040019,-0.03224 0.087009,-0.05389 0.125,-0.08854 0.01852,-0.0169 0.031483,-0.03742 0.049473,-0.05469 0.065004,-0.06236 0.1206457,-0.132436 0.1796876,-0.20052 0.069044,-0.07972 0.1414799,-0.156938 0.2005208,-0.242188 0.048606,-0.06996 0.085137,-0.147148 0.1276041,-0.221354 0.048266,-0.08491 0.1014892,-0.166701 0.1406251,-0.255208 0.041352,-0.09275 0.069911,-0.191542 0.1015624,-0.289063 0.027032,-0.08413 0.058865,-0.166703 0.078125,-0.252604 0.021439,-0.09489 0.027144,-0.193558 0.039063,-0.291667 0.01104,-0.09139 0.026207,-0.181455 0.028645,-0.273437 6.76e-4,-0.02578 0.00781,-0.04958 0.00781,-0.07552 0,-0.07034 -0.015916,-0.136614 -0.020833,-0.205729 -0.00709,-0.102287 -0.013427,-0.20338 -0.03125,-0.304688 -0.015874,-0.0894 -0.041273,-0.174003 -0.065107,-0.260416 -0.025856,-0.09481 -0.050308,-0.188856 -0.085937,-0.28125 -0.035463,-0.09121 -0.080892,-0.1765 -0.125,-0.263021 -0.04216,-0.08336 -0.082075,-0.167467 -0.132813,-0.247396 -0.052979,-0.08315 -0.1136063,-0.159808 -0.1744792,-0.236979 -0.044002,-0.05595 -0.07889,-0.115858 -0.1276041,-0.169271 -0.016945,-0.01858 -0.037373,-0.03144 -0.054688,-0.04948 C 5.5092686,9.9431835 5.4316043,9.8802975 5.3549111,9.8152095 5.2858631,9.7567395 5.219693,9.6944165 5.1465779,9.6433345 5.0721899,9.5911545 4.9914327,9.5505145 4.912203,9.5053135 4.824316,9.4555235 4.7382937,9.4021085 4.6465778,9.3620845 c -0.075114,-0.03302 -0.156132,-0.05402 -0.2343749,-0.08073 -0.09864,-0.03336 -0.1957119,-0.07116 -0.2968751,-0.09375 -0.094078,-0.02117 -0.1918236,-0.02725 -0.2890625,-0.03906 -0.090526,-0.01093 -0.1797254,-0.02615 -0.2708334,-0.02865 -0.026656,-7.22e-4 -0.051298,-0.0078 -0.078125,-0.0078 z m 0,1.9401045 c 0.55,0 1,0.45 1,1 0,0.1375 -0.029948,0.26849 -0.080729,0.388021 -0.00171,0.004 -0.00605,0.0064 -0.00781,0.01041 -0.05375,0.112394 -0.1266294,0.218532 -0.2239583,0.307298 -0.4063728,0.370623 -1.0408356,0.341269 -1.4114583,-0.0651 -0.1853115,-0.203186 -0.272198,-0.462695 -0.2604168,-0.71875 3.89e-5,-8.45e-4 -4.08e-5,-0.0018 0,-0.0026 0.00565,-0.116414 0.037796,-0.229871 0.083333,-0.338542 0.049767,-0.105735 0.1135446,-0.20469 0.1953123,-0.286458 0.18125,-0.18125 0.4307292,-0.294271 0.7057292,-0.294271 z" />
</svg>